<svg id="visual" viewBox="0 0 960 540" width="960" height="540" xmlns="http://www.w3.org/2000/svg" xmlns:xlink="http://www.w3.org/1999/xlink" version="1.1"><rect x="0" y="0" width="960" height="540" fill="#001220"></rect><path d="M0 329L22.8 340.8C45.7 352.7 91.3 376.3 137 385.3C182.7 394.3 228.3 388.7 274 385.8C319.7 383 365.3 383 411.2 374.3C457 365.7 503 348.3 548.8 346.7C594.7 345 640.3 359 686 369C731.7 379 777.3 385 823 381.2C868.7 377.3 914.3 363.7 937.2 356.8L960 350L960 541L937.2 541C914.3 541 868.7 541 823 541C777.3 541 731.7 541 686 541C640.3 541 594.7 541 548.8 541C503 541 457 541 411.2 541C365.3 541 319.7 541 274 541C228.3 541 182.7 541 137 541C91.3 541 45.7 541 22.8 541L0 541Z" fill="#32110e"></path><path d="M0 382L22.8 385.7C45.7 389.3 91.3 396.7 137 403.2C182.7 409.7 228.3 415.3 274 408.3C319.7 401.3 365.3 381.7 411.2 375.8C457 370 503 378 548.8 388.3C594.7 398.7 640.3 411.3 686 415.8C731.7 420.3 777.3 416.7 823 408.5C868.7 400.3 914.3 387.7 937.2 381.3L960 375L960 541L937.2 541C914.3 541 868.7 541 823 541C777.3 541 731.7 541 686 541C640.3 541 594.7 541 548.8 541C503 541 457 541 411.2 541C365.3 541 319.7 541 274 541C228.3 541 182.7 541 137 541C91.3 541 45.7 541 22.8 541L0 541Z" fill="#4d1418"></path><path d="M0 407L22.8 415.8C45.7 424.7 91.3 442.3 137 447.5C182.7 452.7 228.3 445.3 274 434.5C319.7 423.7 365.3 409.3 411.2 406.7C457 404 503 413 548.8 420.5C594.7 428 640.3 434 686 439.7C731.7 445.3 777.3 450.7 823 450.7C868.7 450.7 914.3 445.3 937.2 442.7L960 440L960 541L937.2 541C914.3 541 868.7 541 823 541C777.3 541 731.7 541 686 541C640.3 541 594.7 541 548.8 541C503 541 457 541 411.2 541C365.3 541 319.7 541 274 541C228.3 541 182.7 541 137 541C91.3 541 45.7 541 22.8 541L0 541Z" fill="#6a1424"></path><path d="M0 477L22.8 478.7C45.7 480.3 91.3 483.7 137 480.8C182.7 478 228.3 469 274 460.3C319.7 451.7 365.3 443.3 411.2 442C457 440.7 503 446.3 548.8 453.3C594.7 460.3 640.3 468.7 686 467.3C731.7 466 777.3 455 823 450.8C868.7 446.7 914.3 449.3 937.2 450.7L960 452L960 541L937.2 541C914.3 541 868.7 541 823 541C777.3 541 731.7 541 686 541C640.3 541 594.7 541 548.8 541C503 541 457 541 411.2 541C365.3 541 319.7 541 274 541C228.3 541 182.7 541 137 541C91.3 541 45.7 541 22.8 541L0 541Z" fill="#890f33"></path><path d="M0 511L22.8 505.5C45.7 500 91.3 489 137 488.8C182.7 488.7 228.3 499.3 274 500.5C319.7 501.7 365.3 493.3 411.2 491.8C457 490.3 503 495.7 548.8 495.7C594.7 495.7 640.3 490.3 686 488C731.7 485.7 777.3 486.3 823 486.7C868.7 487 914.3 487 937.2 487L960 487L960 541L937.2 541C914.3 541 868.7 541 823 541C777.3 541 731.7 541 686 541C640.3 541 594.7 541 548.8 541C503 541 457 541 411.2 541C365.3 541 319.7 541 274 541C228.3 541 182.7 541 137 541C91.3 541 45.7 541 22.8 541L0 541Z" fill="#a80046"></path></svg>