<svg id="visual" viewBox="0 0 960 540" width="960" height="540" xmlns="http://www.w3.org/2000/svg" xmlns:xlink="http://www.w3.org/1999/xlink" version="1.1"><rect x="0" y="0" width="960" height="540" fill="#001220"></rect><path d="M0 141L22.8 145.7C45.7 150.3 91.3 159.7 137 158.8C182.7 158 228.3 147 274 147.5C319.7 148 365.3 160 411.2 163.8C457 167.7 503 163.3 548.8 163.8C594.7 164.3 640.3 169.7 686 171C731.7 172.3 777.3 169.7 823 174.8C868.7 180 914.3 193 937.2 199.5L960 206L960 0L937.2 0C914.3 0 868.7 0 823 0C777.3 0 731.7 0 686 0C640.3 0 594.7 0 548.8 0C503 0 457 0 411.2 0C365.3 0 319.7 0 274 0C228.3 0 182.7 0 137 0C91.3 0 45.7 0 22.8 0L0 0Z" fill="#1d0c3d"></path><path d="M0 144L22.8 145.7C45.7 147.3 91.3 150.7 137 152.2C182.7 153.7 228.3 153.3 274 151.7C319.7 150 365.3 147 411.2 139.7C457 132.3 503 120.7 548.8 120C594.7 119.3 640.3 129.7 686 139C731.7 148.3 777.3 156.7 823 157.2C868.7 157.7 914.3 150.3 937.2 146.7L960 143L960 0L937.2 0C914.3 0 868.7 0 823 0C777.3 0 731.7 0 686 0C640.3 0 594.7 0 548.8 0C503 0 457 0 411.2 0C365.3 0 319.7 0 274 0C228.3 0 182.7 0 137 0C91.3 0 45.7 0 22.8 0L0 0Z" fill="#231056"></path><path d="M0 124L22.8 119.2C45.7 114.3 91.3 104.7 137 97.3C182.7 90 228.3 85 274 83.2C319.7 81.3 365.3 82.7 411.2 83.7C457 84.7 503 85.3 548.8 93.3C594.7 101.3 640.3 116.7 686 116C731.7 115.3 777.3 98.7 823 99.2C868.7 99.7 914.3 117.3 937.2 126.2L960 135L960 0L937.2 0C914.3 0 868.7 0 823 0C777.3 0 731.7 0 686 0C640.3 0 594.7 0 548.8 0C503 0 457 0 411.2 0C365.3 0 319.7 0 274 0C228.3 0 182.7 0 137 0C91.3 0 45.7 0 22.8 0L0 0Z" fill="#251470"></path><path d="M0 71L22.8 72.8C45.7 74.7 91.3 78.3 137 77C182.7 75.7 228.3 69.3 274 70.3C319.7 71.3 365.3 79.7 411.2 82.8C457 86 503 84 548.8 80.8C594.7 77.7 640.3 73.3 686 70.3C731.7 67.3 777.3 65.7 823 68.3C868.7 71 914.3 78 937.2 81.5L960 85L960 0L937.2 0C914.3 0 868.7 0 823 0C777.3 0 731.7 0 686 0C640.3 0 594.7 0 548.8 0C503 0 457 0 411.2 0C365.3 0 319.7 0 274 0C228.3 0 182.7 0 137 0C91.3 0 45.7 0 22.8 0L0 0Z" fill="#23198c"></path><path d="M0 42L22.8 41.8C45.7 41.7 91.3 41.3 137 44.2C182.7 47 228.3 53 274 53.8C319.7 54.7 365.3 50.3 411.2 50C457 49.7 503 53.3 548.8 54.8C594.7 56.3 640.3 55.7 686 56.8C731.7 58 777.3 61 823 60.3C868.7 59.7 914.3 55.3 937.2 53.2L960 51L960 0L937.2 0C914.3 0 868.7 0 823 0C777.3 0 731.7 0 686 0C640.3 0 594.7 0 548.8 0C503 0 457 0 411.2 0C365.3 0 319.7 0 274 0C228.3 0 182.7 0 137 0C91.3 0 45.7 0 22.8 0L0 0Z" fill="#1720a9"></path></svg>