<svg id="visual" viewBox="0 0 960 540" width="960" height="540" xmlns="http://www.w3.org/2000/svg" xmlns:xlink="http://www.w3.org/1999/xlink" version="1.1"><rect x="0" y="0" width="960" height="540" fill="#001220"></rect><path d="M0 385L22.8 374.8C45.7 364.7 91.3 344.3 137 339.8C182.7 335.3 228.3 346.7 274 353.8C319.7 361 365.3 364 411.2 358.5C457 353 503 339 548.8 332.7C594.7 326.3 640.3 327.7 686 339.5C731.7 351.3 777.3 373.7 823 378.3C868.7 383 914.3 370 937.2 363.5L960 357L960 541L937.2 541C914.3 541 868.7 541 823 541C777.3 541 731.7 541 686 541C640.3 541 594.7 541 548.8 541C503 541 457 541 411.2 541C365.3 541 319.7 541 274 541C228.3 541 182.7 541 137 541C91.3 541 45.7 541 22.8 541L0 541Z" fill="#a47fe3"></path><path d="M0 362L22.8 364.7C45.7 367.3 91.3 372.7 137 381.3C182.7 390 228.3 402 274 406C319.7 410 365.3 406 411.2 408.7C457 411.3 503 420.7 548.8 415.5C594.7 410.3 640.3 390.7 686 383.3C731.7 376 777.3 381 823 385.3C868.7 389.7 914.3 393.3 937.2 395.2L960 397L960 541L937.2 541C914.3 541 868.7 541 823 541C777.3 541 731.7 541 686 541C640.3 541 594.7 541 548.8 541C503 541 457 541 411.2 541C365.3 541 319.7 541 274 541C228.3 541 182.7 541 137 541C91.3 541 45.7 541 22.8 541L0 541Z" fill="#9869eb"></path><path d="M0 448L22.8 447C45.7 446 91.3 444 137 445.3C182.7 446.7 228.3 451.3 274 454C319.7 456.7 365.3 457.3 411.2 456.7C457 456 503 454 548.8 443.5C594.7 433 640.3 414 686 415.3C731.7 416.7 777.3 438.3 823 443.2C868.7 448 914.3 436 937.2 430L960 424L960 541L937.2 541C914.3 541 868.7 541 823 541C777.3 541 731.7 541 686 541C640.3 541 594.7 541 548.8 541C503 541 457 541 411.2 541C365.3 541 319.7 541 274 541C228.3 541 182.7 541 137 541C91.3 541 45.7 541 22.8 541L0 541Z" fill="#8a51f2"></path><path d="M0 465L22.8 463.3C45.7 461.7 91.3 458.3 137 454.2C182.7 450 228.3 445 274 450.3C319.7 455.7 365.3 471.3 411.2 471.2C457 471 503 455 548.8 452.8C594.7 450.7 640.3 462.3 686 469.3C731.7 476.3 777.3 478.7 823 479.5C868.7 480.3 914.3 479.7 937.2 479.3L960 479L960 541L937.2 541C914.3 541 868.7 541 823 541C777.3 541 731.7 541 686 541C640.3 541 594.7 541 548.8 541C503 541 457 541 411.2 541C365.3 541 319.7 541 274 541C228.3 541 182.7 541 137 541C91.3 541 45.7 541 22.8 541L0 541Z" fill="#7a35f9"></path><path d="M0 479L22.8 480.7C45.7 482.3 91.3 485.7 137 486.7C182.7 487.7 228.3 486.3 274 487.2C319.7 488 365.3 491 411.2 494.7C457 498.3 503 502.7 548.8 505.2C594.7 507.7 640.3 508.3 686 509.7C731.7 511 777.3 513 823 508.2C868.7 503.3 914.3 491.7 937.2 485.8L960 480L960 541L937.2 541C914.3 541 868.7 541 823 541C777.3 541 731.7 541 686 541C640.3 541 594.7 541 548.8 541C503 541 457 541 411.2 541C365.3 541 319.7 541 274 541C228.3 541 182.7 541 137 541C91.3 541 45.7 541 22.8 541L0 541Z" fill="#6600ff"></path></svg>