<svg id="visual" viewBox="0 0 960 540" width="960" height="540" xmlns="http://www.w3.org/2000/svg" xmlns:xlink="http://www.w3.org/1999/xlink" version="1.1"><rect x="0" y="0" width="960" height="540" fill="#001220"></rect><path d="M0 397L22.8 392.3C45.7 387.7 91.3 378.3 137 379.2C182.7 380 228.3 391 274 390.5C319.7 390 365.3 378 411.2 374.2C457 370.3 503 374.7 548.8 374.2C594.7 373.7 640.3 368.3 686 367C731.7 365.7 777.3 368.3 823 363.2C868.7 358 914.3 345 937.2 338.5L960 332L960 541L937.2 541C914.3 541 868.7 541 823 541C777.3 541 731.7 541 686 541C640.3 541 594.7 541 548.8 541C503 541 457 541 411.2 541C365.3 541 319.7 541 274 541C228.3 541 182.7 541 137 541C91.3 541 45.7 541 22.8 541L0 541Z" fill="#1d0c3d"></path><path d="M0 394L22.8 392.3C45.7 390.7 91.3 387.3 137 385.8C182.7 384.3 228.3 384.7 274 386.3C319.7 388 365.3 391 411.2 398.3C457 405.7 503 417.3 548.8 418C594.7 418.7 640.3 408.3 686 399C731.7 389.7 777.3 381.3 823 380.8C868.7 380.3 914.3 387.7 937.2 391.3L960 395L960 541L937.2 541C914.3 541 868.7 541 823 541C777.3 541 731.7 541 686 541C640.3 541 594.7 541 548.8 541C503 541 457 541 411.2 541C365.3 541 319.7 541 274 541C228.3 541 182.7 541 137 541C91.3 541 45.7 541 22.8 541L0 541Z" fill="#231056"></path><path d="M0 414L22.8 418.8C45.7 423.7 91.3 433.3 137 440.7C182.7 448 228.3 453 274 454.8C319.7 456.7 365.3 455.3 411.2 454.3C457 453.3 503 452.7 548.8 444.7C594.7 436.7 640.3 421.3 686 422C731.7 422.7 777.3 439.3 823 438.8C868.7 438.3 914.3 420.7 937.2 411.8L960 403L960 541L937.2 541C914.3 541 868.7 541 823 541C777.3 541 731.7 541 686 541C640.3 541 594.7 541 548.8 541C503 541 457 541 411.2 541C365.3 541 319.7 541 274 541C228.3 541 182.7 541 137 541C91.3 541 45.7 541 22.8 541L0 541Z" fill="#251470"></path><path d="M0 467L22.8 465.2C45.7 463.3 91.3 459.7 137 461C182.7 462.3 228.3 468.7 274 467.7C319.7 466.7 365.3 458.3 411.2 455.2C457 452 503 454 548.8 457.2C594.7 460.3 640.3 464.7 686 467.7C731.7 470.7 777.3 472.3 823 469.7C868.7 467 914.3 460 937.2 456.5L960 453L960 541L937.2 541C914.3 541 868.7 541 823 541C777.3 541 731.7 541 686 541C640.3 541 594.7 541 548.8 541C503 541 457 541 411.2 541C365.3 541 319.7 541 274 541C228.3 541 182.7 541 137 541C91.3 541 45.7 541 22.8 541L0 541Z" fill="#23198c"></path><path d="M0 496L22.8 496.2C45.7 496.3 91.3 496.7 137 493.8C182.7 491 228.3 485 274 484.2C319.7 483.3 365.3 487.7 411.2 488C457 488.3 503 484.7 548.8 483.2C594.7 481.7 640.3 482.3 686 481.2C731.7 480 777.3 477 823 477.7C868.7 478.3 914.3 482.7 937.2 484.8L960 487L960 541L937.2 541C914.3 541 868.7 541 823 541C777.3 541 731.7 541 686 541C640.3 541 594.7 541 548.8 541C503 541 457 541 411.2 541C365.3 541 319.7 541 274 541C228.3 541 182.7 541 137 541C91.3 541 45.7 541 22.8 541L0 541Z" fill="#1720a9"></path></svg>