<svg id="visual" viewBox="0 0 960 540" width="960" height="540" xmlns="http://www.w3.org/2000/svg" xmlns:xlink="http://www.w3.org/1999/xlink" version="1.1"><rect x="0" y="0" width="960" height="540" fill="#001220"></rect><path d="M0 210L22.8 201.7C45.7 193.3 91.3 176.7 137 172.3C182.7 168 228.3 176 274 178C319.7 180 365.3 176 411.2 172.3C457 168.7 503 165.3 548.8 168.2C594.7 171 640.3 180 686 179C731.7 178 777.3 167 823 169.7C868.7 172.3 914.3 188.7 937.2 196.8L960 205L960 0L937.2 0C914.3 0 868.7 0 823 0C777.3 0 731.7 0 686 0C640.3 0 594.7 0 548.8 0C503 0 457 0 411.2 0C365.3 0 319.7 0 274 0C228.3 0 182.7 0 137 0C91.3 0 45.7 0 22.8 0L0 0Z" fill="#32110e"></path><path d="M0 174L22.8 167.2C45.7 160.3 91.3 146.7 137 139.7C182.7 132.7 228.3 132.3 274 136.7C319.7 141 365.3 150 411.2 146.5C457 143 503 127 548.8 124.2C594.7 121.3 640.3 131.7 686 142.5C731.7 153.3 777.3 164.7 823 164.8C868.7 165 914.3 154 937.2 148.5L960 143L960 0L937.2 0C914.3 0 868.7 0 823 0C777.3 0 731.7 0 686 0C640.3 0 594.7 0 548.8 0C503 0 457 0 411.2 0C365.3 0 319.7 0 274 0C228.3 0 182.7 0 137 0C91.3 0 45.7 0 22.8 0L0 0Z" fill="#4d1418"></path><path d="M0 111L22.8 111.5C45.7 112 91.3 113 137 108.8C182.7 104.7 228.3 95.3 274 91.3C319.7 87.3 365.3 88.7 411.2 97.7C457 106.7 503 123.3 548.8 124C594.7 124.7 640.3 109.3 686 100.7C731.7 92 777.3 90 823 88.2C868.7 86.3 914.3 84.7 937.2 83.8L960 83L960 0L937.2 0C914.3 0 868.7 0 823 0C777.3 0 731.7 0 686 0C640.3 0 594.7 0 548.8 0C503 0 457 0 411.2 0C365.3 0 319.7 0 274 0C228.3 0 182.7 0 137 0C91.3 0 45.7 0 22.8 0L0 0Z" fill="#6a1424"></path><path d="M0 66L22.8 63.7C45.7 61.3 91.3 56.7 137 59.7C182.7 62.7 228.3 73.3 274 76.2C319.7 79 365.3 74 411.2 68.5C457 63 503 57 548.8 60.7C594.7 64.3 640.3 77.7 686 82C731.7 86.3 777.3 81.7 823 76.3C868.7 71 914.3 65 937.2 62L960 59L960 0L937.2 0C914.3 0 868.7 0 823 0C777.3 0 731.7 0 686 0C640.3 0 594.7 0 548.8 0C503 0 457 0 411.2 0C365.3 0 319.7 0 274 0C228.3 0 182.7 0 137 0C91.3 0 45.7 0 22.8 0L0 0Z" fill="#890f33"></path><path d="M0 24L22.8 26.7C45.7 29.3 91.3 34.7 137 39.5C182.7 44.3 228.3 48.7 274 52C319.7 55.3 365.3 57.7 411.2 54.2C457 50.7 503 41.3 548.8 35.8C594.7 30.3 640.3 28.7 686 31.3C731.7 34 777.3 41 823 46.3C868.7 51.7 914.3 55.3 937.2 57.2L960 59L960 0L937.2 0C914.3 0 868.7 0 823 0C777.3 0 731.7 0 686 0C640.3 0 594.7 0 548.8 0C503 0 457 0 411.2 0C365.3 0 319.7 0 274 0C228.3 0 182.7 0 137 0C91.3 0 45.7 0 22.8 0L0 0Z" fill="#a80046"></path></svg>